# xmcd
#
# Track frame offsets: 
#        150
#        5153
#        13137
#        27250
#        34411
#        43217
#        51543
#        60594
#        70779
#        79082
#        85603
#        92513
#        100836
#        111682
#        119854
#        128200
#        137321
#        146679
#        153226
#        159122
#        167907
#        176046
#        185710
#        195577
#        201830
#        208174
#        215544
#        227152
#        237743
#        246515
#        255780
#        262378
#        289012
#        301131
#        312560
#
# Disc length: 4246 seconds
#
# Revision: 0
# Processed by: cddbd v1.5.2PL0 Copyright (c) Steve Scherf et al.
# Submitted via: ExactAudioCopy v1.0b3
#
DISCID=13109423
DTITLE=Johnny Horton - The Singing Fisherman [Disc 7]
DYEAR=2014
DGENRE=Country
TTITLE0=Devilish Love Light [2014]
TTITLE1=Done Rovin' [2014]
TTITLE2=Talk Gobbler Talk (Old Gobbler) [2014]
TTITLE3=Give Me Back My Picture And You Can Keep The Frame [2014]
TTITLE4=Two-Eyed Sunday Pants [2014]
TTITLE5=Two-Eyed Sunday Pants [2014]
TTITLE6=On The Banks Of The Beautiful Nile [2014]
TTITLE7=My Home In Shelby County [2014]
TTITLE8=Confusion [2014]
TTITLE9=Go And Wash Your Dirty Feet [2014]
TTITLE10=Talk Gobbler Talk (Old Gobbler) [2014]
TTITLE11=Go And Wash Your Dirty Feet [2014]
TTITLE12=Shadows On The Old Bayou [2014]
TTITLE13=Talk Gobbler Talk (Old Gobbler) [2014]
TTITLE14=Smokey Joe's Barbeque [2014]
TTITLE15=It's A Long Rocky Road [2014]
TTITLE16=My Gal Comes From Heaven [2014]
TTITLE17=Janie [2014]
TTITLE18=My Pretty Little Gal From Dixie [2014]
TTITLE19=Somebody's Rockin' My Broken Heart [2014]
TTITLE20=Somebody's Rockin' My Broken Heart [2014]
TTITLE21=Somebody's Rockin' My Broken Heart [2014]
TTITLE22=Somebody's Rockin' My Broken Heart [2014]
TTITLE23=I'll Fill A Drunkard's Grave [2014]
TTITLE24=I'll Fill A Drunkard's Grave [2014]
TTITLE25=Bawlin' Baby [2014]
TTITLE26=Betty Lorraine [2014]
TTITLE27=First Train Headin' South [2014]
TTITLE28=Down That River Road [2014]
TTITLE29=Confusion [2014]
TTITLE30=Ridin' Down The Rocky Trail [2014]
TTITLE31=Down That River Road [2014]
TTITLE32=First Train Headin' South [2014]
TTITLE33=First Train Headin' South [2014]
TTITLE34=None Of You But All Of Me [2014]
EXTD=
EXTT0=
EXTT1=
EXTT2=
EXTT3=
EXTT4=
EXTT5=
EXTT6=
EXTT7=
EXTT8=
EXTT9=
EXTT10=
EXTT11=
EXTT12=
EXTT13=
EXTT14=
EXTT15=
EXTT16=
EXTT17=
EXTT18=
EXTT19=
EXTT20=
EXTT21=
EXTT22=
EXTT23=
EXTT24=
EXTT25=
EXTT26=
EXTT27=
EXTT28=
EXTT29=
EXTT30=
EXTT31=
EXTT32=
EXTT33=
EXTT34=
PLAYORDER=
